<?xml version="1.0" standalone="no"?>
<!DOCTYPE svg PUBLIC "-//W3C//DTD SVG 20010904//EN"
 "http://www.w3.org/TR/2001/REC-SVG-20010904/DTD/svg10.dtd">
<svg version="1.0" xmlns="http://www.w3.org/2000/svg"
 width="400.000000pt" height="400.000000pt" viewBox="0 0 400.000000 400.000000"
 preserveAspectRatio="xMidYMid meet">
<metadata>
Created by potrace 1.14, written by Peter Selinger 2001-2017
</metadata>
<g transform="translate(0.000000,400.000000) scale(0.100000,-0.100000)"
fill="#000000" stroke="none">
<path d="M1903 3729 c-109 -42 -179 -134 -198 -261 -10 -65 17 -155 50 -168
27 -10 45 -38 45 -72 0 -15 17 -37 51 -65 56 -47 65 -50 93 -28 27 20 33 19
51 -9 15 -22 14 -26 -19 -77 -19 -30 -49 -74 -67 -99 -36 -49 -76 -165 -86
-248 -5 -42 -3 -55 10 -65 13 -10 14 -20 6 -62 -6 -27 -8 -79 -5 -115 5 -57 1
-76 -29 -160 -19 -52 -63 -176 -96 -275 -34 -99 -76 -219 -95 -267 -19 -48
-34 -94 -34 -103 0 -8 14 -22 31 -30 16 -9 34 -26 38 -37 5 -14 25 -28 57 -38
l49 -17 3 -59 c10 -169 -48 -560 -130 -876 -30 -117 -25 -113 -174 -113 -112
0 -128 -2 -138 -18 -19 -31 49 -82 137 -101 40 -9 86 -25 102 -36 34 -22 100
-27 112 -7 4 6 20 46 34 87 14 41 65 172 113 290 106 258 142 394 154 576 13
179 41 226 62 103 5 -30 16 -85 24 -124 17 -79 42 -326 50 -490 6 -128 -7
-344 -23 -374 -7 -11 -54 -41 -106 -66 -76 -36 -96 -50 -101 -71 -4 -15 -2
-30 5 -37 17 -17 129 -12 176 7 27 12 52 15 82 10 26 -4 55 -1 73 6 34 14 40
45 27 150 -9 77 -3 145 26 300 28 151 31 516 5 650 -14 71 -15 95 -5 145 l12
60 45 3 c65 3 90 11 90 26 0 9 18 16 51 20 l52 7 -7 47 c-27 204 -87 460 -147
634 -31 90 -31 108 1 108 10 0 26 8 36 17 14 15 16 30 10 118 -4 55 -15 140
-25 188 l-18 89 24 9 c14 5 31 9 39 9 22 0 17 16 -17 52 -17 18 -53 67 -80
108 -77 118 -91 136 -131 159 -21 12 -38 27 -38 35 0 16 44 58 52 50 4 -3 14
5 23 19 9 14 24 27 34 30 11 3 22 18 26 36 4 17 16 36 27 42 31 17 21 107 -21
188 -31 60 -28 67 12 33 33 -29 18 8 -22 51 -48 52 -151 105 -228 117 -80 13
-100 12 -160 -11z"/>
</g>
</svg>
